<?xml version="1.0" encoding="UTF-8"?>
<svg version="1.1" xmlns="http://www.w3.org/2000/svg" width="1024" height="1024">
<path d="M0 0 C4.78272572 1.80480216 7.06386316 3.87105757 10 8 C10.48597656 8.62390625 10.97195312 9.2478125 11.47265625 9.890625 C19 19.58184889 19 19.58184889 19 24 C19.66 24.33 20.32 24.66 21 25 C22.68102085 28.80375073 23.88525312 32.80296404 25.1875 36.75 C25.5889624 37.96502197 25.9904248 39.18004395 26.40405273 40.43188477 C31.90952558 57.48648981 35.68126092 74.9529031 39.51379395 92.44230652 C46.26868862 124.01756742 46.26868862 124.01756742 58 154 C58.31727051 154.65226563 58.63454102 155.30453125 58.96142578 155.9765625 C63.11250927 164.41523746 67.7676371 171.90800084 74 179 C74.97839844 180.21042969 74.97839844 180.21042969 75.9765625 181.4453125 C92.54598427 201.24173776 119.69523899 213.75622809 144 221 C143.30519531 220.34 142.61039063 219.68 141.89453125 219 C138.49231189 215.59179714 135.60051406 211.82692608 132.6875 208 C132.11499512 207.24887939 131.54249023 206.49775879 130.95263672 205.72387695 C126.17843955 199.381862 122.00167284 192.85874303 118 186 C117.40832031 185.07574219 116.81664062 184.15148437 116.20703125 183.19921875 C108.32120466 170.61323061 100.01682107 152.27343774 102 137 C104.08108108 132.45945946 104.08108108 132.45945946 107 131 C118.73796606 130.87823687 126.65216633 137.39793822 135 145 C137.24248327 147.31379899 139.37128964 149.69267152 141.484375 152.125 C150.95860245 162.95268852 160.82562647 173.64557245 171.74609375 183.02734375 C173.96018991 184.96515754 176.12311145 186.95205204 178.27978516 188.95336914 C184.95246504 195.14244448 191.88028998 200.94978453 199.01953125 206.59765625 C200.3803373 207.69076275 201.69736169 208.83818746 203 210 C203 210.66 203 211.32 203 212 C203.59675537 212.27295898 204.19351074 212.54591797 204.80834961 212.82714844 C208.29831679 214.69478822 210.7939472 217.45616534 213.5625 220.25 C214.17875244 220.8697168 214.79500488 221.48943359 215.42993164 222.12792969 C221.50662478 228.34667131 226.84061656 235.0138387 232 242 C232.94939453 243.25683594 232.94939453 243.25683594 233.91796875 244.5390625 C259.72670781 279.85628437 263.12265719 320.98006085 263.29516602 363.3503418 C263.30685862 365.3484597 263.32757059 367.34654249 263.35668945 369.34448242 C263.39927987 372.288456 263.41549853 375.23153851 263.42578125 378.17578125 C263.45204338 379.50395622 263.45204338 379.50395622 263.47883606 380.85896301 C263.47444771 382.11273994 263.47444771 382.11273994 263.4699707 383.3918457 C263.47583694 384.11539749 263.48170319 384.83894928 263.48774719 385.58442688 C262.75674087 389.20474342 260.9270154 391.85909337 259 395 C243.81403955 394.96283807 228.62828607 394.90298441 213.44253159 394.81609726 C206.39153409 394.7762835 199.34064857 394.743903 192.28955078 394.72900391 C185.48779725 394.71461083 178.68640324 394.67952659 171.88480377 394.63169098 C169.28684755 394.61682699 166.68884181 394.60895613 164.0908432 394.60811615 C160.45829553 394.60575992 156.8267173 394.57878683 153.19433594 394.54589844 C152.11468063 394.5509288 151.03502533 394.55595917 149.9226532 394.56114197 C142.63362445 394.45870204 142.63362445 394.45870204 139.362854 392.09088135 C136.69236768 387.99383938 136.84919492 384.57316299 136.82421875 379.80078125 C136.80097454 378.09829555 136.77685551 376.39582162 136.75195312 374.69335938 C136.7172116 372.02360702 136.68771343 369.35427431 136.67407227 366.68432617 C136.54508423 345.54814762 132.22276815 327.418229 118 311 C117.43410156 310.31421875 116.86820313 309.6284375 116.28515625 308.921875 C109.99714937 301.45041104 102.39647715 295.42992713 94.875 289.25 C94.14361816 288.64728271 93.41223633 288.04456543 92.65869141 287.42358398 C87.95395791 283.56076627 83.18840504 279.78849998 78.375 276.0625 C74.17427098 272.80383765 70.22702103 269.46792194 66.56640625 265.60546875 C64.8159114 263.81132066 62.96521808 262.19392494 61.0625 260.5625 C53.16231857 253.71061188 46.4943706 246.18572589 40 238 C39.21753906 237.05769531 38.43507813 236.11539063 37.62890625 235.14453125 C-1.19210481 187.13070477 -8.36327122 120.95744358 -13.1875 61.625 C-13.2724472 60.58752625 -13.35739441 59.55005249 -13.44491577 58.48114014 C-14.38639235 46.83911634 -15.1712584 35.18995821 -15.73828125 23.5234375 C-15.79582077 22.50166412 -15.85336029 21.47989075 -15.91264343 20.42715454 C-16.21714205 13.40100827 -16.4489339 6.11682496 -11.9375 0.375 C-7.70836288 -1.6045961 -4.45792601 -1.09479102 0 0 Z " fill="#6E47D3" transform="translate(227,333)"/>
<path d="M0 0 C3.15954305 2.54137159 4.71540886 4.14622659 6 8 C6.54548464 20.06466807 5.65276794 32.1569738 4.8125 44.1875 C4.7478656 45.12643097 4.6832312 46.06536194 4.61663818 47.03274536 C0.38344862 107.71418812 -4.47109331 175.93952094 -41 227 C-41.72703125 228.02867187 -42.4540625 229.05734375 -43.203125 230.1171875 C-47.74844607 236.36303079 -52.65659587 242.09881344 -57.93359375 247.72265625 C-60.11951349 250.01858674 -60.11951349 250.01858674 -62 253 C-62.66 253 -63.32 253 -64 253 C-64.22429687 253.56460938 -64.44859375 254.12921875 -64.6796875 254.7109375 C-66.38186428 257.66204872 -68.53681082 259.42024625 -71.125 261.625 C-72.78643175 263.04168827 -74.42153065 264.49142597 -76 266 C-76 266.66 -76 267.32 -76 268 C-77.02996094 268.55558594 -78.05992187 269.11117188 -79.12109375 269.68359375 C-82.77196252 271.77255431 -85.91828547 274.28123307 -89.0625 277.0625 C-93.01018822 280.48700755 -96.99601785 283.81179215 -101.14599609 286.98876953 C-123.215194 303.88501226 -142.11610904 322.85422623 -146.4609375 351.5 C-147.00981744 356.07697929 -147.14049653 360.64534343 -147.2265625 365.25 C-147.24146729 365.98474548 -147.25637207 366.71949097 -147.27172852 367.47650146 C-147.34112238 371.21494392 -147.37479505 374.94942584 -147.35839844 378.68847656 C-147.37122987 380.08919752 -147.38455572 381.48991406 -147.3984375 382.890625 C-147.39336182 384.76282715 -147.39336182 384.76282715 -147.38818359 386.67285156 C-148.18109435 390.98481794 -149.62976706 392.25666453 -153 395 C-156.0453186 395.64596558 -156.0453186 395.64596558 -159.49462891 395.67529297 C-161.45020218 395.70950096 -161.45020218 395.70950096 -163.44528198 395.74440002 C-164.87237567 395.74425669 -166.29946941 395.74350128 -167.7265625 395.7421875 C-169.21805088 395.7584539 -170.70951824 395.77676119 -172.20095825 395.79698181 C-176.18657486 395.84424523 -180.17171099 395.85992233 -184.15757751 395.86780167 C-187.44253983 395.87738505 -190.72729202 395.90334468 -194.01216125 395.9290514 C-203.62844576 396.0029534 -213.24417673 396.0193543 -222.86070251 396.00345612 C-224.88015607 396.00019361 -226.89961188 395.99843203 -228.91906738 395.99676514 C-235.29405926 395.98785582 -241.66740704 395.95185252 -248.04168701 395.8538208 C-249.83755204 395.82642124 -251.63350678 395.80434938 -253.42950439 395.78778076 C-255.86543713 395.76087679 -258.29914827 395.70767929 -260.734375 395.64453125 C-261.7714006 395.63787697 -261.7714006 395.63787697 -262.82937622 395.63108826 C-266.09604424 395.51264306 -267.77840758 395.17166852 -270.39160156 393.1472168 C-273.55571692 388.92311319 -273.14511359 384.62550908 -273.1328125 379.58203125 C-273.13431305 378.74113449 -273.1358136 377.90023773 -273.13735962 377.03385925 C-273.13972045 374.29335811 -273.13345022 371.55298812 -273.125 368.8125 C-273.12278442 367.87962158 -273.12056885 366.94674316 -273.11828613 365.9855957 C-272.94892039 305.46730753 -261.94665269 259.6155039 -218.265625 216.14819336 C-214.31184778 212.2566753 -210.23992897 208.57397154 -206 205 C-203.76740255 203.10817897 -201.53882877 201.21169352 -199.3125 199.3125 C-198.4143457 198.54643433 -198.4143457 198.54643433 -197.49804688 197.76489258 C-192.71940697 193.66645662 -188.07480794 189.439115 -183.47167969 185.14526367 C-180.71654242 182.57636422 -177.93661048 180.05975601 -175.0625 177.625 C-165.22087982 169.10257572 -156.29637482 159.500795 -147.9375 149.54296875 C-140.62423262 141.07430669 -131.84625224 132.93091128 -120.3125 131.5625 C-117 132 -117 132 -114.625 133.5625 C-110.84466005 139.23300993 -111.94581399 145.20190067 -113.1640625 151.59375 C-118.01853136 171.3745764 -128.56274565 190.0299043 -141 206 C-141.73476563 206.94488281 -142.46953125 207.88976562 -143.2265625 208.86328125 C-146.74131253 213.30608325 -150.3699514 217.6514392 -154 222 C-132.75601222 216.19971523 -112.1596556 205.76589143 -95 192 C-94.09378906 191.28199219 -93.18757812 190.56398438 -92.25390625 189.82421875 C-61.21415535 163.70476563 -53.55957822 118.46801517 -45.68457031 81.04394531 C-34.95034942 30.12304646 -34.95034942 30.12304646 -22 12 C-21.59265625 11.42378906 -21.1853125 10.84757812 -20.765625 10.25390625 C-15.42590592 3.3018694 -8.92121776 -0.9228846 0 0 Z " fill="#6E47D3" transform="translate(806,332)"/>
<path d="M0 0 C11.536016 9.806407 11.536016 9.806407 13.83984375 14.4140625 C14.22092285 14.00679932 14.60200195 13.59953613 14.99462891 13.17993164 C31.00791191 -3.77826423 48.49442722 -16.24769839 72.640625 -17.8359375 C95.36619219 -18.20734616 115.24835422 -10.20585332 131.83984375 5.4140625 C137.78570391 11.81946075 142.72393091 18.71176946 146.83984375 26.4140625 C147.28070312 27.2184375 147.7215625 28.0228125 148.17578125 28.8515625 C158.03818468 48.45682508 158.2057056 71.09696289 151.80859375 91.7421875 C139.22481909 126.94274634 107.72152152 152.25455734 79.65234375 175.1015625 C75.95890465 178.1383902 72.31685889 181.23367205 68.67358398 184.33032227 C65.28030266 187.2095157 61.85716589 190.04610487 58.40234375 192.8515625 C48.25405923 201.13467751 38.40519713 209.67633749 28.90136719 218.6940918 C19.88821665 227.22501165 19.88821665 227.22501165 15.02734375 228.1015625 C9.54891302 227.84314596 6.53396164 224.07667405 2.83984375 220.4140625 C1.84984375 219.6509375 0.85984375 218.8878125 -0.16015625 218.1015625 C-0.82015625 217.5446875 -1.48015625 216.9878125 -2.16015625 216.4140625 C-2.16015625 215.7540625 -2.16015625 215.0940625 -2.16015625 214.4140625 C-2.72734375 214.16785156 -3.29453125 213.92164063 -3.87890625 213.66796875 C-6.54648786 212.20171242 -8.44773088 210.44230448 -10.66015625 208.3515625 C-15.3331969 204.05760332 -20.254548 200.28557176 -25.359375 196.5234375 C-28.37011799 194.25593232 -31.18553813 191.85526717 -33.9921875 189.34375 C-41.29719665 182.84163375 -48.82600281 176.61672547 -56.53515625 170.6015625 C-66.45267247 162.85672601 -66.45267247 162.85672601 -70.16015625 159.4140625 C-70.16015625 158.7540625 -70.16015625 158.0940625 -70.16015625 157.4140625 C-70.96453125 157.07375 -70.96453125 157.07375 -71.78515625 156.7265625 C-74.98475786 154.95836161 -77.45052848 152.87736047 -80.16015625 150.4140625 C-80.16015625 149.7540625 -80.16015625 149.0940625 -80.16015625 148.4140625 C-80.73378906 148.16527344 -81.30742187 147.91648437 -81.8984375 147.66015625 C-90.19921281 143.08684481 -96.40853331 133.7306851 -102.16015625 126.4140625 C-102.91425781 125.48851562 -103.66835938 124.56296875 -104.4453125 123.609375 C-119.53796805 104.50409233 -128.56691532 79.92728793 -125.94921875 55.44091797 C-123.4298756 35.90169413 -114.98265516 19.46465545 -101.16015625 5.4140625 C-100.39960938 4.640625 -99.6390625 3.8671875 -98.85546875 3.0703125 C-70.58148043 -23.99855501 -30.04051838 -23.4678949 0 0 Z M28.33984375 44.9140625 C24.94959077 48.15087731 21.52508628 51.55911205 18.83984375 55.4140625 C18.83984375 56.0740625 18.83984375 56.7340625 18.83984375 57.4140625 C11.50287895 57.04099649 8.24565896 54.29910082 3.40234375 49.1640625 C-1.66382755 43.79663953 -6.39668032 39.58875528 -13.16015625 36.4140625 C-13.815 36.07890625 -14.46984375 35.74375 -15.14453125 35.3984375 C-23.99893885 31.62330248 -36.98909255 31.73913213 -45.91015625 35.1640625 C-49.54833217 36.93954219 -52.9181909 38.98258849 -56.16015625 41.4140625 C-57.61421875 42.435 -57.61421875 42.435 -59.09765625 43.4765625 C-66.69197726 49.95172042 -71.54370038 60.21470666 -72.97265625 69.9765625 C-74.28137795 88.10375037 -67.36258702 102.79273014 -56.16015625 116.4140625 C-54.06059176 118.69202136 -51.92894598 120.85743619 -49.65625 122.9609375 C-48.16015625 124.4140625 -48.16015625 124.4140625 -47.16015625 126.4140625 C-46.50015625 126.4140625 -45.84015625 126.4140625 -45.16015625 126.4140625 C-45.16015625 127.0740625 -45.16015625 127.7340625 -45.16015625 128.4140625 C-43.64295642 129.94863617 -43.64295642 129.94863617 -41.66015625 131.5390625 C-38.74391536 134.01097246 -36.00345317 136.53979033 -33.34765625 139.2890625 C-29.50544614 143.19119011 -25.34933876 146.57163842 -21.08203125 149.99609375 C-18.00788329 152.54007448 -15.07884455 155.19565319 -12.16015625 157.9140625 C-3.0408988 167.12026814 -3.0408988 167.12026814 7.83984375 173.4140625 C7.83984375 174.0740625 7.83984375 174.7340625 7.83984375 175.4140625 C9.9882692 177.71658478 9.9882692 177.71658478 12.83984375 179.4140625 C17.51163176 179.20487796 19.69033864 177.08104655 22.96484375 173.9140625 C23.93795376 172.99251562 24.91327035 172.07329397 25.890625 171.15625 C26.38256348 170.6931543 26.87450195 170.23005859 27.38134766 169.75292969 C29.56157156 167.75153232 31.84914531 165.89659034 34.15234375 164.0390625 C45.845263 154.5654792 57.05650168 144.64976157 67.92773438 134.24267578 C69.15931495 133.06487465 70.39471123 131.89104405 71.63476562 130.72216797 C82.65148073 120.3213135 93.09710726 108.63763346 98.83984375 94.4140625 C99.15566406 93.68832031 99.47148438 92.96257812 99.796875 92.21484375 C103.79923849 81.45049627 103.34733551 67.62315004 99.16015625 57.0234375 C94.13624813 47.09453032 85.69214397 39.35092248 75.33984375 35.19921875 C58.37476897 29.87112495 41.92845371 33.447864 28.33984375 44.9140625 Z " fill="#6E46D3" transform="translate(496.16015625,332.5859375)"/>
<path d="M0 0 C3.41988545 0.00536835 6.83963994 0.00001674 10.25952148 -0.00634766 C22.32954376 -0.00962177 34.32211172 0.21113105 46.35913086 1.13037109 C46.02913086 2.12037109 45.69913086 3.11037109 45.35913086 4.13037109 C40.45251374 4.82851393 35.54527677 5.52207366 30.63745117 6.21166992 C28.97321742 6.44613468 27.30914956 6.68178044 25.64526367 6.91870117 C1.66043968 10.3317041 1.66043968 10.3317041 -8.89086914 10.19287109 C-10.25985352 10.17933594 -10.25985352 10.17933594 -11.65649414 10.16552734 C-12.31133789 10.15392578 -12.96618164 10.14232422 -13.64086914 10.13037109 C-13.97086914 10.79037109 -14.30086914 11.45037109 -14.64086914 12.13037109 C-15.37265381 12.10934326 -16.10443848 12.08831543 -16.85839844 12.06665039 C-25.72090629 11.92805636 -34.32928481 12.65760123 -43.12353516 13.67456055 C-45.43887255 13.94120162 -47.75543251 14.19380547 -50.07250977 14.44482422 C-66.58666817 16.16306477 -66.58666817 16.16306477 -82.64086914 20.13037109 C-84.24961914 20.25412109 -84.24961914 20.25412109 -85.89086914 20.38037109 C-90.20147389 20.8780573 -94.22417521 22.14793736 -98.32836914 23.50537109 C-98.97 23.71452148 -99.61163086 23.92367187 -100.27270508 24.13916016 C-104.03331695 25.41874498 -107.31730757 26.95702873 -110.64086914 29.13037109 C-109.62013242 32.17295169 -108.77658079 33.05369009 -105.93774414 34.65771484 C-81.44706854 44.39464644 -55.38938876 46.82820258 -29.32836914 48.75537109 C-28.50171753 48.81799133 -27.67506592 48.88061157 -26.82336426 48.94512939 C9.02713668 51.61824757 44.93831624 51.2190539 80.85986328 51.03442383 C86.15631696 51.00774682 91.45273088 50.99065451 96.74923897 50.97955513 C98.74881072 50.97335489 100.74837449 50.96336154 102.74790764 50.94947624 C105.507611 50.93039335 108.26709535 50.92338677 111.02685547 50.91918945 C112.25675705 50.90604706 112.25675705 50.90604706 113.51150513 50.89263916 C119.13122354 50.90246378 119.13122354 50.90246378 121.35913086 53.13037109 C115.15111433 55.69090435 109.16662812 57.12173966 102.54663086 58.19287109 C101.49677002 58.36278564 100.44690918 58.5327002 99.36523438 58.70776367 C53.69657845 65.73916365 6.2866145 63.74398473 -39.60888672 60.14697266 C-41.30832962 60.01487931 -43.0077919 59.88303496 -44.70727539 59.75146484 C-45.50998367 59.68859283 -46.31269196 59.62572083 -47.13972473 59.5609436 C-52.02638128 59.19571898 -56.84550466 59.02416388 -61.74609375 59.27514648 C-64.09502766 59.0956699 -65.54226433 58.19153612 -67.64086914 57.13037109 C-69.70906015 56.63120672 -71.79257668 56.19390609 -73.88305664 55.79833984 C-75.10790771 55.55986328 -76.33275879 55.32138672 -77.59472656 55.07568359 C-79.53569214 54.70056641 -79.53569214 54.70056641 -81.51586914 54.31787109 C-113.97153038 47.85030608 -113.97153038 47.85030608 -123.70336914 37.06787109 C-125.6307618 34.14569513 -126.64086914 32.61341101 -126.64086914 29.13037109 C-124.37531544 22.03163617 -118.92228458 18.82590966 -112.60180664 15.56005859 C-103.51594588 11.40353838 -94.39762627 9.07733387 -84.64086914 7.13037109 C-83.79991699 6.95763672 -82.95896484 6.78490234 -82.0925293 6.60693359 C-68.33967604 3.81025833 -54.64068541 2.05904879 -40.64086914 1.13037109 C-39.39958252 1.04207031 -38.1582959 0.95376953 -36.87939453 0.86279297 C-24.58840996 0.04505128 -12.31467421 -0.02296031 0 0 Z " fill="#6F48D1" transform="translate(527.640869140625,155.86962890625)"/>
<path d="M0 0 C1.9375 1.5 1.9375 1.5 3 4 C3.36764118 10.67188406 2.29929253 16.81255466 1.0234375 23.34765625 C0.81570709 24.43598251 0.60797668 25.52430878 0.39395142 26.64561462 C-0.04800162 28.9500752 -0.49368938 31.25382227 -0.94287109 33.55688477 C-1.61234924 36.99748488 -2.26605324 40.44080045 -2.91796875 43.88476562 C-9.07088795 75.97720314 -16.50068176 108.37191996 -38 134 C-38.74507812 134.91910156 -39.49015625 135.83820313 -40.2578125 136.78515625 C-47.69846862 145.51503496 -56.71940309 151.98248202 -66.328125 158.12890625 C-69.19066792 159.89236221 -69.19066792 159.89236221 -71 163 C-71.66 163 -72.32 163 -73 163 C-72.46175522 158.42491937 -70.63265971 155.72960126 -68 152 C-64.10528141 146.20074281 -61.06964981 140.22680188 -58.3125 133.8125 C-57.96896484 133.02552734 -57.62542969 132.23855469 -57.27148438 131.42773438 C-50.69394086 115.69882596 -46.68315654 99.22003001 -43 82.625 C-39.96312507 68.99585854 -36.56332854 55.56517539 -32.6239624 42.16760254 C-31.53661845 38.3902443 -30.57688883 34.58270061 -29.640625 30.765625 C-29 29 -29 29 -27 28 C-26.7525 27.21625 -26.505 26.4325 -26.25 25.625 C-22.9266135 15.98717916 -17.49349412 7.3947953 -9.5 1 C-6.11023117 -0.35590753 -3.61204847 -0.4682285 0 0 Z " fill="#6E47D1" transform="translate(753,372)"/>
<path d="M0 0 C7.89083079 0.79231703 12.79907065 2.94350652 18 9 C29.96685238 25.47610111 35.46506179 46.4259045 39.89822388 65.99832153 C40.45590939 68.45613322 41.02598991 70.91079379 41.59936523 73.36499023 C42.37474418 76.68489629 43.14763958 80.00535217 43.91699219 83.32666016 C44.27798496 84.88444238 44.63898714 86.44222243 45 88 C45.16197876 88.69913513 45.32395752 89.39827026 45.49084473 90.11859131 C51.342149 115.31650616 58.44724059 139.91797586 74 161 C65.94874496 161 57.77987732 153.26389602 51.8125 148.25 C51.24805176 147.77844482 50.68360352 147.30688965 50.10205078 146.82104492 C47.52074435 144.58977989 46.09835714 143.29507142 45 140 C44.41347656 139.72929687 43.82695312 139.45859375 43.22265625 139.1796875 C40.02629443 137.48320021 38.54383816 135.0403716 36.4375 132.125 C35.67308594 131.07570313 34.90867187 130.02640625 34.12109375 128.9453125 C33.42113281 127.97335937 32.72117187 127.00140625 32 126 C31.24203125 125.05640625 31.24203125 125.05640625 30.46875 124.09375 C28.3176639 121.02730812 26.71718726 117.729424 25.0625 114.375 C24.71058594 113.66512939 24.35867188 112.95525879 23.99609375 112.22387695 C17 97.96447754 17 97.96447754 17 93 C16.34 92.67 15.68 92.34 15 92 C13.75526799 88.26580398 12.73427833 84.75664633 12.0703125 80.87890625 C11.32082321 76.66147617 10.45260204 72.50556769 9.4519043 68.34179688 C6.71115257 56.91948498 4.4539541 45.40520971 2.23907471 33.87161255 C1.87258613 31.96359688 1.50423089 30.05593877 1.13397217 28.14865112 C0.60799603 25.43355295 0.08989643 22.71707078 -0.42578125 20 C-0.58491501 19.18201431 -0.74404877 18.36402863 -0.90800476 17.52125549 C-2.08902473 11.21364297 -2.81854666 5.98941165 0 0 Z " fill="#6E47D2" transform="translate(269,371)"/>
<path d="M0 0 C0.495 1.485 0.495 1.485 1 3 C-10.71254083 7.59287954 -22.48145651 11.41764864 -34.63256836 14.68969727 C-36.15636108 15.10046509 -36.15636108 15.10046509 -37.7109375 15.51953125 C-38.61118652 15.75776611 -39.51143555 15.99600098 -40.43896484 16.24145508 C-43.0538116 17.01593829 -45.52379997 17.85453403 -48 19 C-48.33 19.66 -48.66 20.32 -49 21 C-14.12465298 30.56886262 22.36768513 29.13371811 58.1015625 26.4375 C64.74221373 25.9568648 71.34484307 25.89994335 78 26 C78 26.66 78 27.32 78 28 C63.46463366 34.16805111 48.69286056 37.37246534 33 39 C31.94296875 39.11214844 30.8859375 39.22429687 29.796875 39.33984375 C2.81873139 41.71835158 -36.69164213 43.46995536 -60 27 C-61.97194346 25.09137583 -63.42026194 23.26429122 -65 21 C-62.38080997 14.93450731 -59.24411187 11.76448742 -53.1171875 9.33203125 C-51.70661799 8.81587313 -50.29243146 8.30950465 -48.875 7.8125 C-48.15957031 7.55275391 -47.44414062 7.29300781 -46.70703125 7.02539062 C-41.25354109 5.05296007 -36.24943632 3.67169052 -30.5 3 C-29.39386353 2.86863647 -29.39386353 2.86863647 -28.26538086 2.73461914 C-21.54642402 1.97978293 -14.82507197 1.60118811 -8.0703125 1.34179688 C-3.90123171 1.27396804 -3.90123171 1.27396804 0 0 Z " fill="#6F48CF" transform="translate(369,244)"/>
<path d="M0 0 C0.84820313 0.0093457 1.69640625 0.01869141 2.5703125 0.02832031 C3.45589844 0.03508789 4.34148438 0.04185547 5.25390625 0.04882812 C46.65974342 0.67049398 46.65974342 0.67049398 60.8828125 8.27832031 C55.52791362 13.63321919 45.80741418 13.60578867 38.5703125 13.65332031 C22.00672253 13.43728145 7.26320007 7.91692715 -8.1171875 2.27832031 C-5.48682102 -0.35204617 -3.58249 0.01930861 0 0 Z " fill="#6E47C8" transform="translate(624.1171875,271.7216796875)"/>
<path d="M0 0 C5.61 0 11.22 0 17 0 C16.67 0.99 16.34 1.98 16 3 C11.09338288 3.69814284 6.18614592 4.39170256 1.27832031 5.08129883 C-0.38591344 5.31576359 -2.0499813 5.55140935 -3.71386719 5.78833008 C-27.69869118 9.20133301 -27.69869118 9.20133301 -38.25 9.0625 C-39.61898437 9.04896484 -39.61898437 9.04896484 -41.015625 9.03515625 C-41.67046875 9.02355469 -42.3253125 9.01195312 -43 9 C-43.33 9.66 -43.66 10.32 -44 11 C-52.25 11 -60.5 11 -69 11 C-69 10.67 -69 10.34 -69 10 C-67.67500488 9.88724731 -67.67500488 9.88724731 -66.32324219 9.7722168 C-29.55905649 6.77795395 -29.55905649 6.77795395 7 2 C4.69 1.67 2.38 1.34 0 1 C0 0.67 0 0.34 0 0 Z " fill="#6443AB" transform="translate(557,157)"/>
<path d="M0 0 C3.30901864 -0.04381252 6.61787164 -0.07559051 9.92706299 -0.10253906 C11.31460533 -0.12483582 11.31460533 -0.12483582 12.73017883 -0.14758301 C14.82940879 -0.15736129 16.92874471 -0.06356143 19.02471924 0.05371094 C20.01471924 1.04371094 20.01471924 1.04371094 21.02471924 2.05371094 C17.53733608 4.17105071 17.53733608 4.17105071 15.13956833 3.62219334 C14.44166813 3.43459414 13.74376793 3.24699495 13.02471924 3.05371094 C11.66451602 2.95825143 10.30062414 2.90811746 8.93713379 2.89549255 C8.1322905 2.88570374 7.3274472 2.87591492 6.49821472 2.86582947 C5.62427567 2.86007401 4.75033661 2.85431854 3.84991455 2.84838867 C2.92274124 2.83848907 1.99556793 2.82858948 1.04029846 2.81838989 C-2.02216037 2.78682044 -5.0846347 2.7620354 -8.14715576 2.73730469 C-10.27136639 2.71673123 -12.39557296 2.69573466 -14.51977539 2.67433167 C-20.10926018 2.61915145 -25.69878166 2.56972427 -31.28833008 2.52148438 C-36.99260726 2.47123981 -42.69683118 2.41556916 -48.40106201 2.36035156 C-59.59242276 2.25281951 -70.78382976 2.1513635 -81.97528076 2.05371094 C-81.97528076 1.72371094 -81.97528076 1.39371094 -81.97528076 1.05371094 C-72.20259392 0.92151046 -62.42988605 0.79101873 -52.65714931 0.66255951 C-48.11661623 0.60282527 -43.57609168 0.54255729 -39.0355835 0.48095703 C-28.83028029 0.34281497 -18.62495068 0.21429903 -8.41931152 0.10351562 C-5.61278787 0.07289156 -2.8064464 0.03791855 0 0 Z " fill="#6241A6" transform="translate(627.9752807617188,206.9462890625)"/>
<path d="M0 0 C2.18394793 2.18394793 2.6390704 3.44958073 3.59375 6.33984375 C3.89692139 7.22921631 4.20009277 8.11858887 4.51245117 9.03491211 C4.83834229 9.99276611 5.1642334 10.95062012 5.5 11.9375 C8.23818129 19.72822438 11.31180514 27.1421173 15.1875 34.4375 C15.59097656 35.19861084 15.99445313 35.95972168 16.41015625 36.74389648 C18.96469502 41.42356523 21.82403713 45.71837332 25 50 C21.32965255 50 19.9000569 48.9247108 16.8125 47 C15.91144531 46.443125 15.01039063 45.88625 14.08203125 45.3125 C13.39496094 44.879375 12.70789063 44.44625 12 44 C13.485 43.505 13.485 43.505 15 43 C14.34 42.34 13.68 41.68 13 41 C13.33 40.34 13.66 39.68 14 39 C13.4726123 37.10515761 13.4726123 37.10515761 12.5 34.9375 C12.13003906 34.050625 11.76007813 33.16375 11.37890625 32.25 C10.92386719 31.1775 10.46882813 30.105 10 29 C0 5.11730205 0 5.11730205 0 0 Z " fill="#6B46B7" transform="translate(318,482)"/>
<path d="M0 0 C0.66 0.33 1.32 0.66 2 1 C1.57589844 1.4125 1.15179687 1.825 0.71484375 2.25 C-2.4381713 5.35450713 -5.45910121 8.49168429 -8.3125 11.875 C-19.2654517 24.53780162 -19.2654517 24.53780162 -26 26 C-28.7295585 28.47906969 -28.7295585 28.47906969 -31 31 C-31.66 30.67 -32.32 30.34 -33 30 C-29.22917845 25.99752389 -25.29896899 22.36896404 -21 18.9375 C-13.63722674 13.02263613 -6.84771579 6.49655087 0 0 Z " fill="#6E49C0" transform="translate(627,513)"/>
<path d="M0 0 C5.04963839 -0.0249944 10.0992396 -0.04299723 15.14892578 -0.05493164 C16.86149728 -0.05991472 18.57406463 -0.0667036 20.28662109 -0.07543945 C29.91012342 -0.12324762 39.41966694 -0.06488163 49 1 C49 1.33 49 1.66 49 2 C45.95919579 2.50579714 42.91753354 3.00480759 39.875 3.5 C39.0190625 3.64308594 38.163125 3.78617188 37.28125 3.93359375 C32.80328495 4.65695734 28.55436565 5.17918816 24 5 C24.639375 4.690625 25.27875 4.38125 25.9375 4.0625 C27.93610821 3.1654837 27.93610821 3.1654837 29 2 C28.2471875 2.01160156 27.494375 2.02320313 26.71875 2.03515625 C17.76939052 2.11118236 8.91983222 1.64122029 0 1 C0 0.67 0 0.34 0 0 Z " fill="#7A4DE1" transform="translate(520,157)"/>
<path d="M0 0 C0.66 0.33 1.32 0.66 2 1 C-11.95744681 17.34042553 -11.95744681 17.34042553 -19 24 C-19.71875 22.234375 -19.71875 22.234375 -20 20 C-18.59375 18.140625 -18.59375 18.140625 -16.5 16.25 C-13.5904463 13.52832324 -10.88475558 10.79355185 -8.3125 7.75 C-5.77157573 4.78947356 -3.17013538 2.30555301 0 0 Z " fill="#6E48C3" transform="translate(670,470)"/>
<path d="M0 0 C0.66 0.33 1.32 0.66 2 1 C1.50371094 1.40089844 1.00742187 1.80179687 0.49609375 2.21484375 C-4.2484535 6.18513851 -7.66665533 10.06628458 -10.87109375 15.375 C-13.36919253 17.28180568 -14.20882163 17.28558144 -17.28125 17.16015625 C-22.73033885 16.28114549 -25.49758873 13.44116958 -29.0625 9.4375 C-29.64193359 8.82197266 -30.22136719 8.20644531 -30.81835938 7.57226562 C-32.23133838 6.06586652 -33.61845915 4.53528264 -35 3 C-32 3 -32 3 -29.546875 5.40625 C-28.13320684 6.94806938 -26.74505234 8.50573703 -25.37890625 10.08984375 C-22.68873489 12.99100895 -21.28900967 13.96199661 -17.31640625 14.484375 C-13.00027413 13.85398586 -11.67853284 12.36729842 -9 9 C-8.67 8.29875 -8.34 7.5975 -8 6.875 C-6.58994654 4.23114977 -4.58248389 3.42036614 -2 2 C-1.34 1.34 -0.68 0.68 0 0 Z " fill="#6846AE" transform="translate(528,373)"/>
<path d="M0 0 C-2.50515784 2.50515784 -4.61068165 3.05099086 -8 4 C-9.32 4 -10.64 4 -12 4 C-12 3.34 -12 2.68 -12 2 C-13.299375 2.2475 -13.299375 2.2475 -14.625 2.5 C-20.69761822 3.39266231 -26.87966132 3.07639812 -33 3 C-33 2.67 -33 2.34 -33 2 C-28.81284871 1.66218885 -24.62523015 1.3305515 -20.4375 1 C-19.25607422 0.90460938 -18.07464844 0.80921875 -16.85742188 0.7109375 C-11.22247585 0.26898095 -5.65283608 -0.1328126 0 0 Z " fill="#774BE1" transform="translate(444,271)"/>
<path d="M0 0 C2.1875 0.3125 2.1875 0.3125 4 1 C-6.11027837 10.70342612 -6.11027837 10.70342612 -13 13 C-13.969375 13.391875 -14.93875 13.78375 -15.9375 14.1875 C-16.618125 14.455625 -17.29875 14.72375 -18 15 C-15.05169716 11.88441756 -11.93847963 9.40962031 -8.4375 6.9375 C-4.67977014 4.33792045 -4.67977014 4.33792045 -1.41015625 1.19140625 C-0.71212891 0.60166016 -0.71212891 0.60166016 0 0 Z " fill="#6E48C1" transform="translate(715,520)"/>
<path d="M0 0 C2.66673742 -0.02727345 5.33318869 -0.04696948 8 -0.0625 C8.74378906 -0.07087891 9.48757813 -0.07925781 10.25390625 -0.08789062 C15.26148844 -0.10966272 20.04279032 0.28458451 25 1 C25 1.33 25 1.66 25 2 C18.565 2.495 18.565 2.495 12 3 C12.99 3.66 13.98 4.32 15 5 C9.54520815 4.43179252 5.08940744 3.05362055 0 1 C0 0.67 0 0.34 0 0 Z " fill="#7A4FE1" transform="translate(620,273)"/>
<path d="M0 0 C0.66 0.33 1.32 0.66 2 1 C2 4 2 4 0.64453125 5.68359375 C0.03996094 6.26238281 -0.56460938 6.84117187 -1.1875 7.4375 C-1.82171875 8.0459375 -2.4559375 8.654375 -3.109375 9.28125 C-5.32686179 11.29714708 -7.61127784 13.190362 -10 15 C-8.18050086 9.17760276 -4.27301206 4.27301206 0 0 Z " fill="#6C47C0" transform="translate(741,375)"/>
<path d="M0 0 C0.66 0.33 1.32 0.66 2 1 C-0.11010225 4.16515337 -1.84793636 5.04838867 -5.10595703 6.82226562 C-8.33449241 8.82980038 -10.82754917 11.51233514 -13.4375 14.25 C-13.97826172 14.80429687 -14.51902344 15.35859375 -15.07617188 15.9296875 C-16.39118209 17.27960949 -17.69662536 18.63884028 -19 20 C-19 16.23598257 -17.65427465 15.29230872 -15.08691406 12.72167969 C-14.54260742 12.19477539 -13.99830078 11.66787109 -13.4375 11.125 C-12.8919043 10.5877832 -12.34630859 10.05056641 -11.78417969 9.49707031 C-8.0908273 5.91318302 -4.35173623 2.76928669 0 0 Z " fill="#6B47B1" transform="translate(532,327)"/>
<path d="M0 0 C5.58486489 4.10415143 9.33312347 8.54787937 12 15 C12 15.99 12 16.98 12 18 C0 3.26213592 0 3.26213592 0 0 Z " fill="#6A46B5" transform="translate(256,554)"/>
<path d="M0 0 C0.44730469 0.39832031 0.89460938 0.79664063 1.35546875 1.20703125 C4.07723909 3.59220739 6.59296584 5.76873059 9.75 7.5625 C12.5270949 9.33675507 13.42816499 11.1296926 15 14 C16.31037934 15.68477344 17.63823078 17.35648543 19 19 C15.8804428 17.61314777 13.74144201 15.99810509 11.328125 13.59375 C10.33232422 12.60181641 10.33232422 12.60181641 9.31640625 11.58984375 C8.63449219 10.90019531 7.95257813 10.21054687 7.25 9.5 C6.55261719 8.81035156 5.85523438 8.12070312 5.13671875 7.41015625 C4.47800781 6.74886719 3.81929688 6.08757812 3.140625 5.40625 C2.53766602 4.80103516 1.93470703 4.19582031 1.31347656 3.57226562 C0 2 0 2 0 0 Z " fill="#764CDB" transform="translate(439,450)"/>
<path d="M0 0 C0.33 0.66 0.66 1.32 1 2 C0.22265625 3.7265625 0.22265625 3.7265625 -0.9375 5.625 C-1.618125 6.73875 -2.29875 7.8525 -3 9 C-2.34 9.66 -1.68 10.32 -1 11 C-5.625 15.875 -5.625 15.875 -9 17 C-8.46014954 12.38127938 -6.56034183 9.47604931 -3.9375 5.6875 C-2.83728516 4.08455078 -2.83728516 4.08455078 -1.71484375 2.44921875 C-1.14894531 1.64097656 -0.58304688 0.83273437 0 0 Z " fill="#6E49B8" transform="translate(689,518)"/>
<path d="M0 0 C0.33 0.99 0.66 1.98 1 3 C-0.59915881 3.69906942 -2.20455045 4.38389468 -3.8125 5.0625 C-4.70582031 5.44535156 -5.59914063 5.82820312 -6.51953125 6.22265625 C-9 7 -9 7 -12 6 C-11.34 5.67 -10.68 5.34 -10 5 C-12.97 4.505 -12.97 4.505 -16 4 C-16 3.67 -16 3.34 -16 3 C-15.26394531 2.95101562 -14.52789062 2.90203125 -13.76953125 2.8515625 C-12.79371094 2.77679688 -11.81789063 2.70203125 -10.8125 2.625 C-9.84957031 2.55539063 -8.88664062 2.48578125 -7.89453125 2.4140625 C-4.98491062 1.99784147 -2.67109226 1.20125904 0 0 Z " fill="#744BCA" transform="translate(369,244)"/>
<path d="M0 0 C0.33 0.66 0.66 1.32 1 2 C-0.41097867 4.45669355 -1.86043594 6.77914624 -3.4375 9.125 C-4.0881543 10.11306641 -4.0881543 10.11306641 -4.75195312 11.12109375 C-5.82749114 12.75212943 -6.91284486 14.37668453 -8 16 C-8.33 15.34 -8.66 14.68 -9 14 C-7.08895813 8.2668744 -4.10993146 4.37594644 0 0 Z " fill="#6A46B5" transform="translate(773,543)"/>
<path d="M0 0 C0.33 0 0.66 0 1 0 C1 2.31 1 4.62 1 7 C1.598125 7.20625 2.19625 7.4125 2.8125 7.625 C5.81018767 9.50926082 6.61361776 11.81132084 8 15 C4.18688695 13.5019913 2.27516449 11.37351976 0 8 C-1.04701353 4.6173409 -1.13517413 3.40552239 0 0 Z " fill="#6544B1" transform="translate(402,182)"/>
<path d="M0 0 C0.33 0.66 0.66 1.32 1 2 C-2.81389558 3.79477439 -5.78645663 4.37453719 -10 4 C-10.66 3.34 -11.32 2.68 -12 2 C-8.09971775 -0.60018816 -4.52565431 -0.15085514 0 0 Z " fill="#6F46C7" transform="translate(684,279)"/>
<path d="M0 0 C5.61 0 11.22 0 17 0 C16.67 0.99 16.34 1.98 16 3 C13.69 3 11.38 3 9 3 C9 2.67 9 2.34 9 2 C6.03 1.67 3.06 1.34 0 1 C0 0.67 0 0.34 0 0 Z " fill="#5B3D9C" transform="translate(557,157)"/>
<path d="M0 0 C0.33 0.66 0.66 1.32 1 2 C-0.64379791 6.67184669 -2.18479582 9.71103088 -6 13 C-4.75696561 7.82069003 -3.14512215 4.29833361 0 0 Z " fill="#6F48C5" transform="translate(673,521)"/>
<path d="M0 0 C2.97 0 5.94 0 9 0 C9 1.32 9 2.64 9 4 C6.6875 4.625 6.6875 4.625 4 5 C3.01 4.34 2.02 3.68 1 3 C1.66 2.67 2.32 2.34 3 2 C2.01 1.34 1.02 0.68 0 0 Z " fill="#6F48CD" transform="translate(629,275)"/>
<path d="M0 0 C3.47775179 1.51553404 5.9557984 3.5773456 8.75 6.125 C9.94882812 7.21167969 9.94882812 7.21167969 11.171875 8.3203125 C11.77515625 8.87460937 12.3784375 9.42890625 13 10 C12.01 10 11.02 10 10 10 C8.66666667 8.66666667 7.33333333 7.33333333 6 6 C5.29875 5.855625 4.5975 5.71125 3.875 5.5625 C3.25625 5.376875 2.6375 5.19125 2 5 C0.75 2.4375 0.75 2.4375 0 0 Z " fill="#744CDA" transform="translate(424,487)"/>
<path d="M0 0 C2.71928517 0.37507382 3.84218661 0.84218661 5.8125 2.8125 C7 5 7 5 6.57421875 7.13671875 C6.38472656 7.75160156 6.19523437 8.36648438 6 9 C4.99406757 7.8803014 3.9954151 6.7540588 3 5.625 C2.443125 4.99851562 1.88625 4.37203125 1.3125 3.7265625 C0 2 0 2 0 0 Z " fill="#6D48C0" transform="translate(358,537)"/>
<path d="M0 0 C0.33 0 0.66 0 1 0 C2.18609365 5.6932495 1.66251802 9.42567486 0 15 C-0.33 15 -0.66 15 -1 15 C-1.18451025 4.44191344 -1.18451025 4.44191344 0 0 Z " fill="#7049C5" transform="translate(745,424)"/>
<path d="M0 0 C3.375 0.6875 3.375 0.6875 7 2 C8.4375 4.625 8.4375 4.625 9 7 C4.545 5.02 4.545 5.02 0 3 C0 2.01 0 1.02 0 0 Z " fill="#6542B2" transform="translate(227,334)"/>
<path d="M0 0 C0.33 0 0.66 0 1 0 C1.99 3.3 2.98 6.6 4 10 C0 8 0 8 -1 7 C-0.71269945 4.66055264 -0.38063221 2.3260857 0 0 Z " fill="#6E48C3" transform="translate(307,261)"/>
<path d="M0 0 C1 3 1 3 0.22265625 5.04296875 C-0.16019531 5.75066406 -0.54304687 6.45835937 -0.9375 7.1875 C-1.31777344 7.90292969 -1.69804688 8.61835937 -2.08984375 9.35546875 C-2.54037109 10.16951172 -2.54037109 10.16951172 -3 11 C-3.33 11 -3.66 11 -4 11 C-3.67 8.69 -3.34 6.38 -3 4 C-2.34 4 -1.68 4 -1 4 C-0.67 2.68 -0.34 1.36 0 0 Z " fill="#6A46B3" transform="translate(783,522)"/>
<path d="M0 0 C2.5 2.3125 2.5 2.3125 5 5 C5 5.99 5 6.98 5 8 C2.5 6.25 2.5 6.25 0 4 C0 2.68 0 1.36 0 0 Z " fill="#6D48BE" transform="translate(454,570)"/>
<path d="M0 0 C0.99 0.33 1.98 0.66 3 1 C3.73046875 2.84765625 3.73046875 2.84765625 4.1875 5.0625 C4.34605469 5.79597656 4.50460938 6.52945313 4.66796875 7.28515625 C4.83232422 8.13400391 4.83232422 8.13400391 5 9 C1.9083091 6.47043472 1.09068668 3.77545388 0 0 Z " fill="#6A46B6" transform="translate(249,542)"/>
<path d="M0 0 C2.5 2.3125 2.5 2.3125 5 5 C5 5.99 5 6.98 5 8 C2.5 6.25 2.5 6.25 0 4 C0 2.68 0 1.36 0 0 Z " fill="#6E4AB2" transform="translate(337,525)"/>
<path d="M0 0 C2.31 0 4.62 0 7 0 C7 0.33 7 0.66 7 1 C4.69 1 2.38 1 0 1 C0 0.67 0 0.34 0 0 Z " fill="#6B47BB" transform="translate(656,286)"/>
<path d="M0 0 C0.33 0 0.66 0 1 0 C1 1.98 1 3.96 1 6 C0.67 6 0.34 6 0 6 C0 4.02 0 2.04 0 0 Z " fill="#6443B3" transform="translate(362,704)"/>
<path d="M0 0 C0.33 0 0.66 0 1 0 C1 1.98 1 3.96 1 6 C0.67 6 0.34 6 0 6 C0 4.02 0 2.04 0 0 Z " fill="#6946BB" transform="translate(362,697)"/>
<path d="M0 0 C0.99 0.99 1.98 1.98 3 3 C2.01 2.67 1.02 2.34 0 2 C0 1.34 0 0.68 0 0 Z " fill="#6D47C2" transform="translate(296,602)"/>
<path d="M0 0 C1.65 0 3.3 0 5 0 C5 0.33 5 0.66 5 1 C3.35 1 1.7 1 0 1 C0 0.67 0 0.34 0 0 Z " fill="#7049CA" transform="translate(395,284)"/>
<path d="M0 0 C1.32 0.33 2.64 0.66 4 1 C3.01 1.33 2.02 1.66 1 2 C0.67 1.34 0.34 0.68 0 0 Z " fill="#704BCF" transform="translate(466,172)"/>
<path d="M0 0 C0 3 0 3 0 3 Z " fill="#774FD4" transform="translate(337,531)"/>
<path d="M0 0 C0.99 1.485 0.99 1.485 2 3 C1.34 3 0.68 3 0 3 C0 2.01 0 1.02 0 0 Z " fill="#6844BC" transform="translate(235,516)"/>
<path d="M0 0 C4 1 4 1 4 1 Z " fill="#744FD1" transform="translate(548,367)"/>
<path d="M0 0 C4 1 4 1 4 1 Z " fill="#6F49C6" transform="translate(468,215)"/>
<path d="M0 0 C0.99 0.33 1.98 0.66 3 1 C2.01 1.33 1.02 1.66 0 2 C0 1.34 0 0.68 0 0 Z " fill="#714CCF" transform="translate(457,173)"/>
<path d="M0 0 C4 1 4 1 4 1 Z " fill="#6241B3" transform="translate(532,154)"/>
<path d="" fill="#6242AE" transform="translate(0,0)"/>
<path d="" fill="#6B48BF" transform="translate(0,0)"/>
<path d="" fill="#6F49C5" transform="translate(0,0)"/>
<path d="" fill="#6B49BE" transform="translate(0,0)"/>
<path d="M0 0 C0.66 0.66 1.32 1.32 2 2 C1.34 2 0.68 2 0 2 C0 1.34 0 0.68 0 0 Z " fill="#744CD6" transform="translate(394,461)"/>
<path d="" fill="#724DD1" transform="translate(0,0)"/>
<path d="M0 0 C0.33 0.66 0.66 1.32 1 2 C0.34 1.67 -0.32 1.34 -1 1 C-0.67 0.67 -0.34 0.34 0 0 Z " fill="#744FD5" transform="translate(593,390)"/>
<path d="" fill="#6946B9" transform="translate(0,0)"/>
<path d="" fill="#5F40A9" transform="translate(0,0)"/>
<path d="M0 0 C3 1 3 1 3 1 Z " fill="#6645B6" transform="translate(665,286)"/>
<path d="M0 0 C3 1 3 1 3 1 Z " fill="#7149CC" transform="translate(377,285)"/>
<path d="M0 0 C0.66 0 1.32 0 2 0 C1.67 0.66 1.34 1.32 1 2 C0.67 1.34 0.34 0.68 0 0 Z " fill="#6F48C9" transform="translate(458,213)"/>
<path d="M0 0 C3 1 3 1 3 1 Z " fill="#6F4AC8" transform="translate(516,167)"/>
<path d="M0 0 C3 1 3 1 3 1 Z " fill="#6D48C5" transform="translate(531,166)"/>
<path d="M0 0 C3 1 3 1 3 1 Z " fill="#6648B8" transform="translate(449,160)"/>
<path d="" fill="#6C46C2" transform="translate(0,0)"/>
<path d="" fill="#6140AC" transform="translate(0,0)"/>
<path d="" fill="#6746BB" transform="translate(0,0)"/>
<path d="" fill="#6E4AC7" transform="translate(0,0)"/>
<path d="" fill="#6E48C8" transform="translate(0,0)"/>
<path d="M0 0 C2 1 2 1 2 1 Z " fill="#6B47C1" transform="translate(310,615)"/>
<path d="" fill="#6D48BF" transform="translate(0,0)"/>
<path d="M0 0 C2 1 2 1 2 1 Z " fill="#6C48C2" transform="translate(298,606)"/>
<path d="M0 0 C2 1 2 1 2 1 Z " fill="#6D46C1" transform="translate(290,598)"/>
<path d="" fill="#6B47BD" transform="translate(0,0)"/>
<path d="" fill="#6A46BB" transform="translate(0,0)"/>
<path d="" fill="#6845BA" transform="translate(0,0)"/>
<path d="" fill="#6946BF" transform="translate(0,0)"/>
<path d="" fill="#764ED5" transform="translate(0,0)"/>
<path d="" fill="#7651D4" transform="translate(0,0)"/>
<path d="" fill="#6B48BE" transform="translate(0,0)"/>
<path d="" fill="#6B49BE" transform="translate(0,0)"/>
<path d="" fill="#6B48BD" transform="translate(0,0)"/>
<path d="M0 0 C2 1 2 1 2 1 Z " fill="#754FD2" transform="translate(409,478)"/>
<path d="" fill="#774FD3" transform="translate(0,0)"/>
<path d="" fill="#6C49C0" transform="translate(0,0)"/>
<path d="" fill="#764ED6" transform="translate(0,0)"/>
<path d="" fill="#754FD3" transform="translate(0,0)"/>
<path d="" fill="#734CD1" transform="translate(0,0)"/>
<path d="" fill="#724ED0" transform="translate(0,0)"/>
<path d="" fill="#724DCE" transform="translate(0,0)"/>
<path d="M0 0 C2 1 2 1 2 1 Z " fill="#714ACA" transform="translate(509,391)"/>
<path d="" fill="#6A47BC" transform="translate(0,0)"/>
<path d="" fill="#744CCE" transform="translate(0,0)"/>
<path d="M0 0 C2 1 2 1 2 1 Z " fill="#6C49C3" transform="translate(750,370)"/>
<path d="M0 0 C2 1 2 1 2 1 Z " fill="#6945B8" transform="translate(209,368)"/>
<path d="" fill="#6844BC" transform="translate(0,0)"/>
<path d="M0 0 C2 1 2 1 2 1 Z " fill="#754CD5" transform="translate(469,367)"/>
<path d="M0 0 C2 1 2 1 2 1 Z " fill="#754ED6" transform="translate(460,367)"/>
<path d="" fill="#6844B7" transform="translate(0,0)"/>
<path d="" fill="#6744B9" transform="translate(0,0)"/>
<path d="M0 0 C2 1 2 1 2 1 Z " fill="#593C9D" transform="translate(801,330)"/>
<path d="M0 0 C2 1 2 1 2 1 Z " fill="#5E3EA7" transform="translate(222,330)"/>
<path d="M0 0 C2 1 2 1 2 1 Z " fill="#7351CE" transform="translate(417,320)"/>
<path d="M0 0 C2 1 2 1 2 1 Z " fill="#6443AD" transform="translate(673,285)"/>
<path d="M0 0 C2 1 2 1 2 1 Z " fill="#7248CB" transform="translate(370,285)"/>
<path d="M0 0 C2 1 2 1 2 1 Z " fill="#6F49C5" transform="translate(354,284)"/>
<path d="M0 0 C2 1 2 1 2 1 Z " fill="#704AC4" transform="translate(429,279)"/>
<path d="M0 0 C2 1 2 1 2 1 Z " fill="#6B48BC" transform="translate(618,276)"/>
<path d="" fill="#5E40A3" transform="translate(0,0)"/>
<path d="M0 0 C2 1 2 1 2 1 Z " fill="#7049CA" transform="translate(526,219)"/>
<path d="M0 0 C2 1 2 1 2 1 Z " fill="#6242B0" transform="translate(628,215)"/>
<path d="M0 0 C2 1 2 1 2 1 Z " fill="#5E3FA6" transform="translate(633,214)"/>
<path d="M0 0 C2 1 2 1 2 1 Z " fill="#553B98" transform="translate(644,212)"/>
<path d="M0 0 C2 1 2 1 2 1 Z " fill="#724DCF" transform="translate(531,205)"/>
<path d="M0 0 C2 1 2 1 2 1 Z " fill="#704ECC" transform="translate(465,200)"/>
<path d="M0 0 C2 1 2 1 2 1 Z " fill="#6E4BC9" transform="translate(420,183)"/>
<path d="M0 0 C2 1 2 1 2 1 Z " fill="#6044AD" transform="translate(414,170)"/>
<path d="M0 0 C2 1 2 1 2 1 Z " fill="#6346B0" transform="translate(416,169)"/>
<path d="M0 0 C2 1 2 1 2 1 Z " fill="#6F4BC9" transform="translate(528,166)"/>
<path d="M0 0 C2 1 2 1 2 1 Z " fill="#6442B6" transform="translate(524,154)"/>
<path d="" fill="#000000" transform="translate(0,0)"/>
<path d="" fill="#000000" transform="translate(0,0)"/>
<path d="" fill="#000000" transform="translate(0,0)"/>
<path d="" fill="#000000" transform="translate(0,0)"/>
<path d="" fill="#6245B5" transform="translate(0,0)"/>
<path d="" fill="#704BC6" transform="translate(0,0)"/>
<path d="" fill="#6343B0" transform="translate(0,0)"/>
<path d="" fill="#6445B8" transform="translate(0,0)"/>
<path d="" fill="#734BCD" transform="translate(0,0)"/>
<path d="" fill="#764BCD" transform="translate(0,0)"/>
<path d="" fill="#6C47BF" transform="translate(0,0)"/>
<path d="" fill="#7850D2" transform="translate(0,0)"/>
<path d="" fill="#6D49C3" transform="translate(0,0)"/>
<path d="" fill="#6F4CC8" transform="translate(0,0)"/>
<path d="" fill="#784ED4" transform="translate(0,0)"/>
<path d="" fill="#6F49C7" transform="translate(0,0)"/>
<path d="" fill="#7851D6" transform="translate(0,0)"/>
<path d="" fill="#784ED5" transform="translate(0,0)"/>
<path d="" fill="#6F47C6" transform="translate(0,0)"/>
<path d="" fill="#7048C5" transform="translate(0,0)"/>
<path d="" fill="#6F46CE" transform="translate(0,0)"/>
<path d="" fill="#6F4AC7" transform="translate(0,0)"/>
<path d="" fill="#744ED3" transform="translate(0,0)"/>
<path d="" fill="#6D49C7" transform="translate(0,0)"/>
<path d="" fill="#6E4AC9" transform="translate(0,0)"/>
<path d="" fill="#6D4BC6" transform="translate(0,0)"/>
<path d="" fill="#6E48CD" transform="translate(0,0)"/>
<path d="" fill="#6E48CB" transform="translate(0,0)"/>
<path d="" fill="#7750D4" transform="translate(0,0)"/>
<path d="" fill="#6C46C0" transform="translate(0,0)"/>
<path d="" fill="#754DD5" transform="translate(0,0)"/>
<path d="" fill="#6D47C0" transform="translate(0,0)"/>
<path d="" fill="#6C46BE" transform="translate(0,0)"/>
<path d="" fill="#6D45BF" transform="translate(0,0)"/>
<path d="" fill="#6C47C5" transform="translate(0,0)"/>
<path d="" fill="#774FD5" transform="translate(0,0)"/>
<path d="" fill="#6C43C6" transform="translate(0,0)"/>
<path d="" fill="#7045C4" transform="translate(0,0)"/>
<path d="" fill="#6E46BE" transform="translate(0,0)"/>
<path d="" fill="#6C45BF" transform="translate(0,0)"/>
<path d="" fill="#6945C1" transform="translate(0,0)"/>
<path d="" fill="#6D47BC" transform="translate(0,0)"/>
<path d="" fill="#774ED4" transform="translate(0,0)"/>
<path d="" fill="#7650D4" transform="translate(0,0)"/>
<path d="" fill="#6842BA" transform="translate(0,0)"/>
<path d="" fill="#6844BD" transform="translate(0,0)"/>
<path d="" fill="#6D47BF" transform="translate(0,0)"/>
<path d="" fill="#794FD8" transform="translate(0,0)"/>
<path d="" fill="#6C45BC" transform="translate(0,0)"/>
<path d="" fill="#6C46BD" transform="translate(0,0)"/>
<path d="" fill="#6A45BB" transform="translate(0,0)"/>
<path d="" fill="#6B46BC" transform="translate(0,0)"/>
<path d="" fill="#6B45BB" transform="translate(0,0)"/>
<path d="" fill="#764DD7" transform="translate(0,0)"/>
<path d="" fill="#784DDA" transform="translate(0,0)"/>
<path d="" fill="#734ED0" transform="translate(0,0)"/>
<path d="" fill="#6C48C3" transform="translate(0,0)"/>
<path d="" fill="#000000" transform="translate(0,0)"/>
<path d="" fill="#754CD8" transform="translate(0,0)"/>
<path d="" fill="#724DD3" transform="translate(0,0)"/>
<path d="" fill="#7754D4" transform="translate(0,0)"/>
<path d="" fill="#6844BD" transform="translate(0,0)"/>
<path d="" fill="#7951D8" transform="translate(0,0)"/>
<path d="" fill="#754CD6" transform="translate(0,0)"/>
<path d="" fill="#6943BC" transform="translate(0,0)"/>
<path d="" fill="#774DD2" transform="translate(0,0)"/>
<path d="" fill="#774FD7" transform="translate(0,0)"/>
<path d="" fill="#7B51D7" transform="translate(0,0)"/>
<path d="" fill="#7853D9" transform="translate(0,0)"/>
<path d="" fill="#764CD1" transform="translate(0,0)"/>
<path d="" fill="#754DD4" transform="translate(0,0)"/>
<path d="" fill="#774FD6" transform="translate(0,0)"/>
<path d="" fill="#7853D7" transform="translate(0,0)"/>
<path d="" fill="#784FDB" transform="translate(0,0)"/>
<path d="" fill="#754ED7" transform="translate(0,0)"/>
<path d="" fill="#754FD4" transform="translate(0,0)"/>
<path d="" fill="#754DD5" transform="translate(0,0)"/>
<path d="" fill="#714BD2" transform="translate(0,0)"/>
<path d="" fill="#754ED3" transform="translate(0,0)"/>
<path d="" fill="#7750D8" transform="translate(0,0)"/>
<path d="" fill="#6944BB" transform="translate(0,0)"/>
<path d="" fill="#7952DC" transform="translate(0,0)"/>
<path d="" fill="#7650D6" transform="translate(0,0)"/>
<path d="" fill="#744ED2" transform="translate(0,0)"/>
<path d="" fill="#764ED9" transform="translate(0,0)"/>
<path d="" fill="#7751D4" transform="translate(0,0)"/>
<path d="" fill="#794ED7" transform="translate(0,0)"/>
<path d="" fill="#774DD6" transform="translate(0,0)"/>
<path d="" fill="#7751D4" transform="translate(0,0)"/>
<path d="" fill="#764DD2" transform="translate(0,0)"/>
<path d="" fill="#7950D7" transform="translate(0,0)"/>
<path d="" fill="#7852D6" transform="translate(0,0)"/>
<path d="" fill="#7951D4" transform="translate(0,0)"/>
<path d="" fill="#7851D5" transform="translate(0,0)"/>
<path d="" fill="#744FD6" transform="translate(0,0)"/>
<path d="" fill="#774DD7" transform="translate(0,0)"/>
<path d="" fill="#7850D4" transform="translate(0,0)"/>
<path d="" fill="#7A51DA" transform="translate(0,0)"/>
<path d="" fill="#784ED5" transform="translate(0,0)"/>
<path d="" fill="#744FD0" transform="translate(0,0)"/>
<path d="" fill="#6948BD" transform="translate(0,0)"/>
<path d="" fill="#784FD7" transform="translate(0,0)"/>
<path d="" fill="#7950D5" transform="translate(0,0)"/>
<path d="" fill="#784CD7" transform="translate(0,0)"/>
<path d="" fill="#6B47BC" transform="translate(0,0)"/>
<path d="" fill="#754CD8" transform="translate(0,0)"/>
<path d="" fill="#7852D8" transform="translate(0,0)"/>
<path d="" fill="#7149D2" transform="translate(0,0)"/>
<path d="" fill="#754DD7" transform="translate(0,0)"/>
<path d="" fill="#764FD6" transform="translate(0,0)"/>
<path d="" fill="#744CDA" transform="translate(0,0)"/>
<path d="" fill="#764DD2" transform="translate(0,0)"/>
<path d="" fill="#6C44BF" transform="translate(0,0)"/>
<path d="" fill="#754EDB" transform="translate(0,0)"/>
<path d="" fill="#7650D2" transform="translate(0,0)"/>
<path d="" fill="#7850D2" transform="translate(0,0)"/>
<path d="" fill="#784FD5" transform="translate(0,0)"/>
<path d="" fill="#7551D1" transform="translate(0,0)"/>
<path d="" fill="#764FD9" transform="translate(0,0)"/>
<path d="" fill="#754BD4" transform="translate(0,0)"/>
<path d="" fill="#754CD5" transform="translate(0,0)"/>
<path d="" fill="#794DD9" transform="translate(0,0)"/>
<path d="" fill="#6B49BD" transform="translate(0,0)"/>
<path d="" fill="#764DD4" transform="translate(0,0)"/>
<path d="" fill="#744CDE" transform="translate(0,0)"/>
<path d="" fill="#7550D4" transform="translate(0,0)"/>
<path d="" fill="#774DD2" transform="translate(0,0)"/>
<path d="" fill="#754CD6" transform="translate(0,0)"/>
<path d="" fill="#754DD6" transform="translate(0,0)"/>
<path d="" fill="#7651D7" transform="translate(0,0)"/>
<path d="" fill="#6F4BD3" transform="translate(0,0)"/>
<path d="" fill="#754ED4" transform="translate(0,0)"/>
<path d="" fill="#774FD7" transform="translate(0,0)"/>
<path d="" fill="#7751DB" transform="translate(0,0)"/>
<path d="" fill="#764DDC" transform="translate(0,0)"/>
<path d="" fill="#774DD8" transform="translate(0,0)"/>
<path d="" fill="#774DD5" transform="translate(0,0)"/>
<path d="" fill="#7750D8" transform="translate(0,0)"/>
<path d="" fill="#734DD2" transform="translate(0,0)"/>
<path d="" fill="#754FCF" transform="translate(0,0)"/>
<path d="" fill="#7348D5" transform="translate(0,0)"/>
<path d="" fill="#7851D8" transform="translate(0,0)"/>
<path d="" fill="#7550D5" transform="translate(0,0)"/>
<path d="" fill="#7750D6" transform="translate(0,0)"/>
<path d="" fill="#784BD8" transform="translate(0,0)"/>
<path d="" fill="#774DD8" transform="translate(0,0)"/>
<path d="" fill="#6947BB" transform="translate(0,0)"/>
<path d="" fill="#764FD6" transform="translate(0,0)"/>
<path d="" fill="#7550D2" transform="translate(0,0)"/>
<path d="" fill="#7649D5" transform="translate(0,0)"/>
<path d="" fill="#794DD4" transform="translate(0,0)"/>
<path d="" fill="#784ED7" transform="translate(0,0)"/>
<path d="" fill="#754DD3" transform="translate(0,0)"/>
<path d="" fill="#744ECE" transform="translate(0,0)"/>
<path d="" fill="#764CD9" transform="translate(0,0)"/>
<path d="" fill="#774FD4" transform="translate(0,0)"/>
<path d="" fill="#7753D8" transform="translate(0,0)"/>
<path d="" fill="#744CD3" transform="translate(0,0)"/>
<path d="" fill="#764ED4" transform="translate(0,0)"/>
<path d="" fill="#754FCF" transform="translate(0,0)"/>
<path d="" fill="#774ED7" transform="translate(0,0)"/>
<path d="" fill="#7850D5" transform="translate(0,0)"/>
<path d="" fill="#714CD1" transform="translate(0,0)"/>
<path d="" fill="#7751D5" transform="translate(0,0)"/>
<path d="" fill="#744CD6" transform="translate(0,0)"/>
<path d="" fill="#7450D3" transform="translate(0,0)"/>
<path d="" fill="#734ED1" transform="translate(0,0)"/>
<path d="" fill="#754DD3" transform="translate(0,0)"/>
<path d="" fill="#734DCF" transform="translate(0,0)"/>
<path d="" fill="#7750D5" transform="translate(0,0)"/>
<path d="" fill="#764FD5" transform="translate(0,0)"/>
<path d="" fill="#754DD3" transform="translate(0,0)"/>
<path d="" fill="#754CD7" transform="translate(0,0)"/>
<path d="" fill="#7347DD" transform="translate(0,0)"/>
<path d="" fill="#714BD2" transform="translate(0,0)"/>
<path d="" fill="#7752D7" transform="translate(0,0)"/>
<path d="" fill="#764DD3" transform="translate(0,0)"/>
<path d="" fill="#7850D4" transform="translate(0,0)"/>
<path d="" fill="#764DD3" transform="translate(0,0)"/>
<path d="" fill="#754CD6" transform="translate(0,0)"/>
<path d="" fill="#794FD5" transform="translate(0,0)"/>
<path d="" fill="#764FD7" transform="translate(0,0)"/>
<path d="" fill="#6C48C1" transform="translate(0,0)"/>
<path d="" fill="#774ED3" transform="translate(0,0)"/>
<path d="" fill="#794FD4" transform="translate(0,0)"/>
<path d="" fill="#6D47C3" transform="translate(0,0)"/>
<path d="" fill="#6843BB" transform="translate(0,0)"/>
<path d="" fill="#734DCA" transform="translate(0,0)"/>
<path d="" fill="#7651D7" transform="translate(0,0)"/>
<path d="" fill="#734DD4" transform="translate(0,0)"/>
<path d="" fill="#754ED8" transform="translate(0,0)"/>
<path d="" fill="#6B46C0" transform="translate(0,0)"/>
<path d="" fill="#6B47BE" transform="translate(0,0)"/>
<path d="" fill="#754ED6" transform="translate(0,0)"/>
<path d="" fill="#764FD2" transform="translate(0,0)"/>
<path d="" fill="#754FD6" transform="translate(0,0)"/>
<path d="" fill="#744FD1" transform="translate(0,0)"/>
<path d="" fill="#7651D4" transform="translate(0,0)"/>
<path d="" fill="#7550D2" transform="translate(0,0)"/>
<path d="" fill="#7750D3" transform="translate(0,0)"/>
<path d="" fill="#764ED8" transform="translate(0,0)"/>
<path d="" fill="#6B48C1" transform="translate(0,0)"/>
<path d="" fill="#724CD5" transform="translate(0,0)"/>
<path d="" fill="#754FD6" transform="translate(0,0)"/>
<path d="" fill="#734ED4" transform="translate(0,0)"/>
<path d="" fill="#744CD3" transform="translate(0,0)"/>
<path d="" fill="#744ED5" transform="translate(0,0)"/>
<path d="" fill="#754CD2" transform="translate(0,0)"/>
<path d="" fill="#774FD5" transform="translate(0,0)"/>
<path d="" fill="#6B49C2" transform="translate(0,0)"/>
<path d="" fill="#734DCF" transform="translate(0,0)"/>
<path d="" fill="#744ED2" transform="translate(0,0)"/>
<path d="" fill="#744CD7" transform="translate(0,0)"/>
<path d="" fill="#764ED7" transform="translate(0,0)"/>
<path d="" fill="#7A51DA" transform="translate(0,0)"/>
<path d="" fill="#744DD7" transform="translate(0,0)"/>
<path d="" fill="#754FD5" transform="translate(0,0)"/>
<path d="" fill="#6C47C0" transform="translate(0,0)"/>
<path d="" fill="#754FD7" transform="translate(0,0)"/>
<path d="" fill="#764DD6" transform="translate(0,0)"/>
<path d="" fill="#774FD6" transform="translate(0,0)"/>
<path d="" fill="#784CD6" transform="translate(0,0)"/>
<path d="" fill="#6D49BF" transform="translate(0,0)"/>
<path d="" fill="#764DD3" transform="translate(0,0)"/>
<path d="" fill="#6B49C1" transform="translate(0,0)"/>
<path d="" fill="#744CD3" transform="translate(0,0)"/>
<path d="" fill="#774FD8" transform="translate(0,0)"/>
<path d="" fill="#7450D6" transform="translate(0,0)"/>
<path d="" fill="#764ED5" transform="translate(0,0)"/>
<path d="" fill="#744DD8" transform="translate(0,0)"/>
<path d="" fill="#7450D2" transform="translate(0,0)"/>
<path d="" fill="#744CD4" transform="translate(0,0)"/>
<path d="" fill="#734BCF" transform="translate(0,0)"/>
<path d="" fill="#734CCC" transform="translate(0,0)"/>
<path d="" fill="#7650D6" transform="translate(0,0)"/>
<path d="" fill="#734CCD" transform="translate(0,0)"/>
<path d="" fill="#6D48BE" transform="translate(0,0)"/>
<path d="" fill="#7049C9" transform="translate(0,0)"/>
<path d="" fill="#6C47C1" transform="translate(0,0)"/>
<path d="" fill="#6A48BF" transform="translate(0,0)"/>
<path d="" fill="#724DD1" transform="translate(0,0)"/>
<path d="" fill="#754DD3" transform="translate(0,0)"/>
<path d="" fill="#744FD3" transform="translate(0,0)"/>
<path d="" fill="#744DD3" transform="translate(0,0)"/>
<path d="" fill="#724BCD" transform="translate(0,0)"/>
<path d="" fill="#724CD0" transform="translate(0,0)"/>
<path d="" fill="#714BC9" transform="translate(0,0)"/>
<path d="" fill="#6A45C0" transform="translate(0,0)"/>
<path d="" fill="#724ACF" transform="translate(0,0)"/>
<path d="" fill="#754FD4" transform="translate(0,0)"/>
<path d="" fill="#734DD1" transform="translate(0,0)"/>
<path d="" fill="#6C48C0" transform="translate(0,0)"/>
<path d="" fill="#734DD6" transform="translate(0,0)"/>
<path d="" fill="#724BD1" transform="translate(0,0)"/>
<path d="" fill="#724DD1" transform="translate(0,0)"/>
<path d="" fill="#734DCF" transform="translate(0,0)"/>
<path d="" fill="#6B48BE" transform="translate(0,0)"/>
<path d="" fill="#6D46C8" transform="translate(0,0)"/>
<path d="" fill="#714DCA" transform="translate(0,0)"/>
<path d="" fill="#714AC9" transform="translate(0,0)"/>
<path d="" fill="#754DD2" transform="translate(0,0)"/>
<path d="" fill="#744AD4" transform="translate(0,0)"/>
<path d="" fill="#754BD3" transform="translate(0,0)"/>
<path d="" fill="#744ED6" transform="translate(0,0)"/>
<path d="" fill="#724CD3" transform="translate(0,0)"/>
<path d="" fill="#754DD4" transform="translate(0,0)"/>
<path d="" fill="#724CD5" transform="translate(0,0)"/>
<path d="" fill="#724CD5" transform="translate(0,0)"/>
<path d="" fill="#754AD7" transform="translate(0,0)"/>
<path d="" fill="#744DD6" transform="translate(0,0)"/>
<path d="" fill="#744DD5" transform="translate(0,0)"/>
<path d="" fill="#7650D3" transform="translate(0,0)"/>
<path d="" fill="#744DCF" transform="translate(0,0)"/>
<path d="" fill="#6E49CA" transform="translate(0,0)"/>
<path d="" fill="#6945BC" transform="translate(0,0)"/>
<path d="" fill="#744BD5" transform="translate(0,0)"/>
<path d="" fill="#6C48C4" transform="translate(0,0)"/>
<path d="" fill="#6E48C1" transform="translate(0,0)"/>
<path d="" fill="#734CD0" transform="translate(0,0)"/>
<path d="" fill="#764DD8" transform="translate(0,0)"/>
<path d="" fill="#734ED4" transform="translate(0,0)"/>
<path d="" fill="#7351D5" transform="translate(0,0)"/>
<path d="" fill="#724BD5" transform="translate(0,0)"/>
<path d="" fill="#734CCF" transform="translate(0,0)"/>
<path d="" fill="#6F4CC4" transform="translate(0,0)"/>
<path d="" fill="#704CCE" transform="translate(0,0)"/>
<path d="" fill="#6441B1" transform="translate(0,0)"/>
<path d="" fill="#6D49C1" transform="translate(0,0)"/>
<path d="" fill="#6342AF" transform="translate(0,0)"/>
<path d="" fill="#6143AF" transform="translate(0,0)"/>
<path d="" fill="#6A47BF" transform="translate(0,0)"/>
<path d="" fill="#6541AC" transform="translate(0,0)"/>
<path d="" fill="#6041AA" transform="translate(0,0)"/>
<path d="" fill="#6542BB" transform="translate(0,0)"/>
<path d="" fill="#7149DA" transform="translate(0,0)"/>
<path d="" fill="#5B3BA4" transform="translate(0,0)"/>
<path d="" fill="#573A9A" transform="translate(0,0)"/>
<path d="" fill="#5E3CA4" transform="translate(0,0)"/>
<path d="" fill="#5F3FA8" transform="translate(0,0)"/>
<path d="" fill="#593C9C" transform="translate(0,0)"/>
<path d="" fill="#5D3EA9" transform="translate(0,0)"/>
<path d="" fill="#744CD1" transform="translate(0,0)"/>
<path d="" fill="#714CCC" transform="translate(0,0)"/>
<path d="" fill="#764DD5" transform="translate(0,0)"/>
<path d="" fill="#754DD1" transform="translate(0,0)"/>
<path d="" fill="#714DC8" transform="translate(0,0)"/>
<path d="" fill="#754FCF" transform="translate(0,0)"/>
<path d="" fill="#744CD0" transform="translate(0,0)"/>
<path d="" fill="#714CD0" transform="translate(0,0)"/>
<path d="" fill="#734BCC" transform="translate(0,0)"/>
<path d="" fill="#714CCE" transform="translate(0,0)"/>
<path d="" fill="#744BCF" transform="translate(0,0)"/>
<path d="" fill="#6C46C0" transform="translate(0,0)"/>
<path d="" fill="#6D47C5" transform="translate(0,0)"/>
<path d="" fill="#7149CB" transform="translate(0,0)"/>
<path d="" fill="#704BC8" transform="translate(0,0)"/>
<path d="" fill="#7348CA" transform="translate(0,0)"/>
<path d="" fill="#6241A7" transform="translate(0,0)"/>
<path d="" fill="#6E47C1" transform="translate(0,0)"/>
<path d="" fill="#724BCB" transform="translate(0,0)"/>
<path d="" fill="#734AC9" transform="translate(0,0)"/>
<path d="" fill="#7148C9" transform="translate(0,0)"/>
<path d="" fill="#6E48C4" transform="translate(0,0)"/>
<path d="" fill="#6D47C2" transform="translate(0,0)"/>
<path d="" fill="#734BCA" transform="translate(0,0)"/>
<path d="" fill="#6B48BD" transform="translate(0,0)"/>
<path d="" fill="#6B49BE" transform="translate(0,0)"/>
<path d="" fill="#6A47B9" transform="translate(0,0)"/>
<path d="" fill="#6A47BC" transform="translate(0,0)"/>
<path d="" fill="#6E4AC7" transform="translate(0,0)"/>
<path d="" fill="#6C49C0" transform="translate(0,0)"/>
<path d="" fill="#6A47BF" transform="translate(0,0)"/>
<path d="" fill="#6545B8" transform="translate(0,0)"/>
<path d="" fill="#6745B6" transform="translate(0,0)"/>
<path d="" fill="#6645B4" transform="translate(0,0)"/>
<path d="" fill="#603FA8" transform="translate(0,0)"/>
<path d="" fill="#744DCC" transform="translate(0,0)"/>
<path d="" fill="#6F4BC9" transform="translate(0,0)"/>
<path d="" fill="#724DC9" transform="translate(0,0)"/>
<path d="" fill="#714CC4" transform="translate(0,0)"/>
<path d="" fill="#734EC6" transform="translate(0,0)"/>
<path d="" fill="#704AC6" transform="translate(0,0)"/>
<path d="" fill="#6645B4" transform="translate(0,0)"/>
<path d="" fill="#6444B2" transform="translate(0,0)"/>
<path d="" fill="#6E49C5" transform="translate(0,0)"/>
<path d="" fill="#704ACB" transform="translate(0,0)"/>
<path d="" fill="#7049C6" transform="translate(0,0)"/>
<path d="" fill="#734ACA" transform="translate(0,0)"/>
<path d="" fill="#6D4AC0" transform="translate(0,0)"/>
<path d="" fill="#714AC8" transform="translate(0,0)"/>
<path d="" fill="#5E3EA3" transform="translate(0,0)"/>
<path d="" fill="#6F48C7" transform="translate(0,0)"/>
<path d="" fill="#593DA0" transform="translate(0,0)"/>
<path d="" fill="#59399A" transform="translate(0,0)"/>
<path d="" fill="#523790" transform="translate(0,0)"/>
<path d="" fill="#6D49C3" transform="translate(0,0)"/>
<path d="" fill="#724DCB" transform="translate(0,0)"/>
<path d="" fill="#744BCF" transform="translate(0,0)"/>
<path d="" fill="#734BCC" transform="translate(0,0)"/>
<path d="" fill="#734DD0" transform="translate(0,0)"/>
<path d="" fill="#6244AB" transform="translate(0,0)"/>
<path d="" fill="#734CCA" transform="translate(0,0)"/>
<path d="" fill="#6548B2" transform="translate(0,0)"/>
<path d="" fill="#6C48BE" transform="translate(0,0)"/>
<path d="" fill="#6C48C3" transform="translate(0,0)"/>
<path d="" fill="#6946BA" transform="translate(0,0)"/>
<path d="" fill="#6646B5" transform="translate(0,0)"/>
<path d="" fill="#6544B9" transform="translate(0,0)"/>
<path d="" fill="#6344B4" transform="translate(0,0)"/>
<path d="" fill="#6946BB" transform="translate(0,0)"/>
<path d="" fill="#6848B9" transform="translate(0,0)"/>
<path d="" fill="#6645B8" transform="translate(0,0)"/>
<path d="" fill="#6745BB" transform="translate(0,0)"/>
<path d="" fill="#6645B9" transform="translate(0,0)"/>
<path d="" fill="#5D41A7" transform="translate(0,0)"/>
<path d="" fill="#603FB0" transform="translate(0,0)"/>
<path d="" fill="#6541B9" transform="translate(0,0)"/>
<path d="" fill="#6542BA" transform="translate(0,0)"/>
<path d="" fill="#04020A" transform="translate(0,0)"/>
</svg>
